<?xml version="1.0" encoding="iso-8859-1"?>
<!-- Uploaded to: SVG Repo, www.svgrepo.com, Generator: SVG Repo Mixer Tools -->
<svg fill="#000000" width="32" height="41" version="1.1" id="Layer_1" xmlns="http://www.w3.org/2000/svg" xmlns:xlink="http://www.w3.org/1999/xlink" 
	 viewBox="0 0 512 512" xml:space="preserve">
<g>
	<g>
		<path d="M415.886,11.739c-0.175-0.934-0.467-1.853-0.832-2.743c-0.365-0.876-0.803-1.722-1.328-2.51
			c-0.54-0.803-1.153-1.547-1.824-2.218c-0.671-0.673-1.415-1.286-2.218-1.809c-0.788-0.525-1.634-0.978-2.524-1.342
			c-0.876-0.365-1.795-0.657-2.729-0.832c-1.868-0.379-3.809-0.379-5.691,0c-0.934,0.175-1.853,0.467-2.743,0.832
			c-0.875,0.365-1.722,0.817-2.51,1.342c-0.803,0.524-1.547,1.137-2.218,1.809c-0.671,0.671-1.284,1.415-1.809,2.218
			c-0.54,0.788-0.978,1.634-1.342,2.51c-0.365,0.89-0.657,1.809-0.832,2.743c-0.19,0.935-0.292,1.898-0.292,2.845
			c0,0.948,0.102,1.913,0.292,2.845c0.175,0.932,0.467,1.852,0.832,2.743c0.365,0.877,0.803,1.722,1.343,2.51
			c0.525,0.804,1.138,1.548,1.809,2.219c0.671,0.671,1.415,1.284,2.218,1.809c0.788,0.524,1.634,0.978,2.51,1.342
			c0.89,0.365,1.809,0.657,2.743,0.846s1.897,0.276,2.845,0.276s1.912-0.088,2.846-0.276c0.934-0.19,1.853-0.482,2.729-0.846
			c0.89-0.365,1.736-0.819,2.524-1.342c0.803-0.525,1.547-1.138,2.218-1.809c0.671-0.671,1.284-1.415,1.809-2.219
			c0.525-0.788,0.978-1.633,1.343-2.51c0.365-0.89,0.657-1.809,0.832-2.743c0.19-0.934,0.292-1.897,0.292-2.845
			C416.177,13.638,416.075,12.673,415.886,11.739z"/>
	</g>
</g>
<g>
	<g>
		<path d="M340.24,272.85c-0.19-0.934-0.467-1.855-0.832-2.729c-0.365-0.89-0.817-1.735-1.342-2.523
			c-0.525-0.804-1.138-1.548-1.809-2.219c-0.671-0.671-1.415-1.284-2.218-1.809c-0.788-0.54-1.649-0.978-2.524-1.342
			c-0.875-0.365-1.795-0.657-2.729-0.846c-1.882-0.379-3.823-0.365-5.706,0c-0.934,0.19-1.839,0.482-2.729,0.846
			c-0.876,0.365-1.722,0.803-2.524,1.342c-0.788,0.525-1.532,1.138-2.218,1.809c-0.671,0.671-1.27,1.415-1.809,2.219
			c-0.525,0.788-0.978,1.633-1.342,2.523c-0.365,0.875-0.642,1.795-0.832,2.729c-0.19,0.934-0.277,1.897-0.277,2.845
			c0,0.947,0.088,1.912,0.277,2.845c0.19,0.934,0.467,1.853,0.832,2.727c0.365,0.89,0.817,1.736,1.342,2.524
			c0.54,0.803,1.138,1.547,1.809,2.218c0.686,0.671,1.43,1.286,2.218,1.809c0.803,0.54,1.649,0.978,2.524,1.342
			c0.89,0.365,1.795,0.657,2.729,0.832c0.948,0.19,1.912,0.292,2.86,0.292s1.912-0.102,2.845-0.292
			c0.934-0.175,1.853-0.467,2.729-0.832c0.89-0.365,1.737-0.803,2.524-1.342c0.803-0.524,1.547-1.138,2.218-1.809
			c0.671-0.671,1.284-1.415,1.809-2.218c0.525-0.788,0.978-1.634,1.342-2.524c0.365-0.876,0.642-1.793,0.832-2.727
			c0.19-0.935,0.292-1.898,0.292-2.845C340.532,274.747,340.43,273.783,340.24,272.85z"/>
	</g>
</g>
<g>
	<g>
		<path d="M418.337,207.842h-15.506c-7.033-44.992-46.048-79.527-92.982-79.527h-39.259V75.66l77.166-23.198
			c7.718-2.32,12.094-10.457,9.774-18.174c-2.322-7.716-10.458-12.097-18.176-9.772l-87.557,26.323
			c-6.168,1.855-10.391,7.532-10.391,13.973v63.506h-39.254c-46.934,0-85.949,34.535-92.982,79.527H93.663
			c-8.059,0-14.592,6.534-14.592,14.592c0,8.058,6.533,14.592,14.592,14.592h11.526l29.273,238.451
			c2.028,20.159,20.085,36.521,40.36,36.521H337.18c20.629,0,38.319-16.024,40.373-36.524l29.259-238.448h11.525
			c8.059,0,14.592-6.534,14.592-14.592C432.929,214.378,426.396,207.842,418.337,207.842z M202.151,157.5h107.698
			c30.789,0,56.642,21.541,63.282,50.343H138.869C145.509,179.041,171.361,157.5,202.151,157.5z M232.237,482.816h-57.415
			c-5.514,0-10.807-4.818-11.326-10.312c-0.013-0.134-0.028-0.27-0.044-0.403l-6.199-50.497l55.902,42.485
			c2.64,2.005,5.742,2.975,8.818,2.975c3.757,0,7.47-1.459,10.264-4.229V482.816z M219.194,432.022l-37.852-28.768l28.768-37.852
			l37.853,28.768L219.194,432.022z M308.965,482.431h-47.544v-47.545h47.544V482.431z M348.563,472.101
			c-0.016,0.134-0.031,0.27-0.044,0.403c-0.489,5.17-5.212,9.739-10.371,10.26v-62.47c0-8.058-6.533-14.592-14.592-14.592h-47.703
			l4.173-5.491c4.877-6.416,3.628-15.571-2.789-20.448l-61.088-46.426c-6.416-4.874-15.57-3.629-20.446,2.789l-42.139,55.447
			l-12.434-101.284h141.028c8.059,0,14.592-6.534,14.592-14.592c0-8.058-6.533-14.592-14.592-14.592H137.549l-2.956-24.077h242.815
			L348.563,472.101z"/>
	</g>
</g>
</svg>